<svg width="245" height="100" viewBox="0 0 245 100" fill="none" xmlns="http://www.w3.org/2000/svg">
<path d="M146.91 25.8887C146.907 23.1701 146.158 20.5036 144.743 18.1753C143.328 15.847 141.3 13.9448 138.878 12.6727C138.821 10.0338 137.953 7.47505 136.389 5.33932C134.826 3.2036 132.641 1.59293 130.129 0.723152C127.616 -0.146628 124.896 -0.233965 122.332 0.472845C119.768 1.17966 117.483 2.64684 115.783 4.6778C114.084 2.64684 111.799 1.17966 109.235 0.472845C106.671 -0.233965 103.951 -0.146628 101.438 0.723152C98.9256 1.59293 96.7412 3.2036 95.1775 5.33932C93.6138 7.47505 92.7456 10.0338 92.6892 12.6727C90.2643 13.9413 88.2345 15.8423 86.8186 18.1708C85.4028 20.4994 84.6545 23.167 84.6545 25.8862C84.6545 28.6055 85.4028 31.2731 86.8186 33.6016C88.2345 35.9301 90.2643 37.8312 92.6892 39.0998C92.7446 41.7391 93.6121 44.2985 95.1754 46.435C96.7387 48.5715 98.9231 50.183 101.436 51.0534C103.949 51.9238 106.669 52.0115 109.234 51.3048C111.798 50.5982 114.084 49.1309 115.783 47.0997C117.483 49.1309 119.769 50.5982 122.333 51.3048C124.897 52.0115 127.618 51.9238 130.131 51.0534C132.644 50.183 134.828 48.5715 136.391 46.435C137.955 44.2985 138.822 41.7391 138.878 39.0998C141.301 37.83 143.329 35.929 144.745 33.6013C146.16 31.2735 146.909 28.6071 146.91 25.8887ZM105.742 45.8074C104.226 45.8072 102.75 45.3205 101.535 44.4199C100.32 43.5192 99.432 42.253 99.0024 40.8103C99.2535 40.8103 99.4769 40.8278 99.7179 40.8278H101.726C102.525 40.8278 103.291 40.513 103.856 39.9526C104.421 39.3923 104.738 38.6324 104.738 37.8399C104.738 37.0475 104.421 36.2876 103.856 35.7273C103.291 35.1669 102.525 34.8521 101.726 34.8521H99.7179C97.585 34.8536 95.5203 34.1068 93.8891 32.7437C92.258 31.3807 91.1654 29.4894 90.8048 27.4043C90.4441 25.3192 90.8387 23.1748 91.9186 21.3505C92.9985 19.5261 94.6941 18.1394 96.7056 17.4357C97.2931 17.2297 97.8018 16.848 98.1615 16.3432C98.5211 15.8384 98.7141 15.2354 98.7138 14.6172V12.9416C98.7138 11.0926 99.4543 9.31937 100.772 8.01195C102.091 6.70453 103.878 5.97003 105.742 5.97003C107.607 5.97003 109.394 6.70453 110.712 8.01195C112.031 9.31937 112.771 11.0926 112.771 12.9416V27.9179C111.801 27.3063 110.755 26.8233 109.658 26.4813C108.896 26.2436 108.07 26.316 107.361 26.6825C106.653 27.049 106.12 27.6797 105.881 28.4358C105.641 29.1919 105.714 30.0115 106.083 30.7142C106.453 31.417 107.089 31.9453 107.851 32.183C109.455 32.6813 110.826 33.7331 111.715 35.1476C112.604 36.5622 112.953 38.246 112.698 39.8937C112.443 41.5414 111.601 43.0439 110.325 44.1288C109.049 45.2137 107.423 45.8093 105.742 45.8074ZM131.849 34.8521H129.841C129.042 34.8521 128.276 35.1669 127.711 35.7273C127.146 36.2876 126.829 37.0475 126.829 37.8399C126.829 38.6324 127.146 39.3923 127.711 39.9526C128.276 40.513 129.042 40.8278 129.841 40.8278H131.849C132.1 40.8278 132.326 40.8278 132.564 40.8103C132.22 41.9652 131.58 43.012 130.707 43.8487C129.834 44.6853 128.757 45.2833 127.581 45.5843C126.405 45.8853 125.171 45.8792 123.999 45.5664C122.826 45.2536 121.755 44.6449 120.89 43.7995C120.026 42.9542 119.396 41.9011 119.064 40.7428C118.732 39.5845 118.707 38.3605 118.994 37.1902C119.28 36.0198 119.867 34.943 120.698 34.0646C121.528 33.1862 122.574 32.5363 123.733 32.1781C124.496 31.9426 125.134 31.4163 125.505 30.7147C125.877 30.0131 125.953 29.1938 125.715 28.4371C125.478 27.6803 124.947 27.0481 124.24 26.6794C123.533 26.3108 122.707 26.2359 121.944 26.4714C120.834 26.8125 119.775 27.299 118.796 27.9179V12.9416C118.796 11.0926 119.536 9.31937 120.854 8.01195C122.173 6.70453 123.96 5.97003 125.824 5.97003C127.689 5.97003 129.476 6.70453 130.794 8.01195C132.113 9.31937 132.853 11.0926 132.853 12.9416V14.6172C132.853 15.2354 133.046 15.8384 133.405 16.3432C133.765 16.848 134.274 17.2297 134.861 17.4357C136.882 18.1331 138.587 19.5187 139.674 21.3462C140.762 23.1737 141.16 25.3244 140.798 27.4158C140.437 29.5071 139.339 31.4035 137.7 32.7675C136.062 34.1314 133.988 34.8746 131.849 34.8646V34.8521ZM135.865 23.8969C135.865 24.6893 135.548 25.4492 134.983 26.0096C134.418 26.5699 133.652 26.8847 132.853 26.8847C130.19 26.8847 127.636 25.8354 125.753 23.9676C123.87 22.0999 122.812 19.5667 122.812 16.9253V15.9294C122.812 15.137 123.129 14.377 123.694 13.8167C124.259 13.2564 125.026 12.9416 125.824 12.9416C126.623 12.9416 127.39 13.2564 127.954 13.8167C128.519 14.377 128.837 15.137 128.837 15.9294V16.9253C128.837 17.9819 129.26 18.9951 130.013 19.7422C130.766 20.4893 131.788 20.9091 132.853 20.9091C133.652 20.9091 134.418 21.2238 134.983 21.7842C135.548 22.3445 135.865 23.1044 135.865 23.8969ZM98.7138 26.8847C97.9149 26.8847 97.1487 26.5699 96.5837 26.0096C96.0188 25.4492 95.7015 24.6893 95.7015 23.8969C95.7015 23.1044 96.0188 22.3445 96.5837 21.7842C97.1487 21.2238 97.9149 20.9091 98.7138 20.9091C99.779 20.9091 100.801 20.4893 101.554 19.7422C102.307 18.9951 102.73 17.9819 102.73 16.9253V15.9294C102.73 15.137 103.048 14.377 103.612 13.8167C104.177 13.2564 104.944 12.9416 105.742 12.9416C106.541 12.9416 107.308 13.2564 107.872 13.8167C108.437 14.377 108.755 15.137 108.755 15.9294V16.9253C108.755 19.5667 107.697 22.0999 105.814 23.9676C103.931 25.8354 101.377 26.8847 98.7138 26.8847Z" fill="url(#paint0_linear_36_65)"/>
<path d="M1.875 61.6864H11.7045L18.4659 78.1637H18.8068L25.5682 61.6864H35.3977V90.7773H27.6705V73.9592H27.4432L20.9659 90.5501H16.3068L9.82955 73.8455H9.60227V90.7773H1.875V61.6864ZM39.2543 90.7773V68.9592H47.0952V90.7773H39.2543ZM43.1747 66.6864C42.1141 66.6864 41.205 66.3361 40.4474 65.6353C39.6899 64.9345 39.3111 64.0917 39.3111 63.1069C39.3111 62.122 39.6899 61.2792 40.4474 60.5785C41.205 59.8777 42.1141 59.5273 43.1747 59.5273C44.2448 59.5273 45.1539 59.8777 45.902 60.5785C46.6596 61.2792 47.0384 62.122 47.0384 63.1069C47.0384 64.0917 46.6596 64.9345 45.902 65.6353C45.1539 66.3361 44.2448 66.6864 43.1747 66.6864ZM58.9311 78.5046V90.7773H51.0902V68.9592H58.5334V73.1069H58.7607C59.2341 71.7243 60.0675 70.64 61.2607 69.854C62.4633 69.0681 63.8648 68.6751 65.4652 68.6751C67.0088 68.6751 68.3487 69.0302 69.4851 69.7404C70.6309 70.4412 71.5163 71.4071 72.1413 72.6381C72.7758 73.8692 73.0883 75.2754 73.0788 76.8569V90.7773H65.2379V78.5046C65.2474 77.4251 64.9728 76.5775 64.4141 75.962C63.8648 75.3465 63.0978 75.0387 62.1129 75.0387C61.469 75.0387 60.9055 75.1808 60.4226 75.4648C59.9491 75.7395 59.5845 76.1372 59.3288 76.658C59.0732 77.1694 58.9406 77.7849 58.9311 78.5046ZM84.8473 91.0614C83.2943 91.0614 81.8643 90.6542 80.5575 89.8398C79.2602 89.0254 78.2185 87.7897 77.4325 86.1325C76.656 84.4753 76.2678 82.3872 76.2678 79.8683C76.2678 77.2357 76.675 75.0955 77.4893 73.4478C78.3132 71.8001 79.3738 70.5927 80.6712 69.8256C81.978 69.0586 83.3511 68.6751 84.7905 68.6751C85.87 68.6751 86.817 68.8645 87.6314 69.2433C88.4458 69.6126 89.1276 70.1097 89.6768 70.7347C90.2261 71.3503 90.6428 72.0273 90.9268 72.766H91.0405V61.6864H98.8814V90.7773H91.0973V87.1978H90.9268C90.6238 87.9364 90.1882 88.5993 89.62 89.1864C89.0613 89.7641 88.3795 90.2234 87.5746 90.5643C86.7791 90.8957 85.87 91.0614 84.8473 91.0614ZM87.745 85.0387C88.4647 85.0387 89.0803 84.8304 89.5916 84.4137C90.1125 83.9876 90.5102 83.391 90.7848 82.6239C91.0689 81.8474 91.2109 80.9289 91.2109 79.8683C91.2109 78.7887 91.0689 77.8654 90.7848 77.0984C90.5102 76.3219 90.1125 75.73 89.5916 75.3228C89.0803 74.9061 88.4647 74.6978 87.745 74.6978C87.0253 74.6978 86.4098 74.9061 85.8984 75.3228C85.3965 75.73 85.0083 76.3219 84.7337 77.0984C84.4685 77.8654 84.3359 78.7887 84.3359 79.8683C84.3359 80.9478 84.4685 81.8758 84.7337 82.6523C85.0083 83.4194 85.3965 84.0112 85.8984 84.4279C86.4098 84.8351 87.0253 85.0387 87.745 85.0387ZM102.617 61.6864H112.447L119.208 78.1637H119.549L126.31 61.6864H136.14V90.7773H128.413V73.9592H128.185L121.708 90.5501H117.049L110.572 73.8455H110.344V90.7773H102.617V61.6864ZM139.996 90.7773V68.9592H147.837V90.7773H139.996ZM143.917 66.6864C142.856 66.6864 141.947 66.3361 141.19 65.6353C140.432 64.9345 140.053 64.0917 140.053 63.1069C140.053 62.122 140.432 61.2792 141.19 60.5785C141.947 59.8777 142.856 59.5273 143.917 59.5273C144.987 59.5273 145.896 59.8777 146.644 60.5785C147.402 61.2792 147.781 62.122 147.781 63.1069C147.781 64.0917 147.402 64.9345 146.644 65.6353C145.896 66.3361 144.987 66.6864 143.917 66.6864ZM159.673 78.5046V90.7773H151.832V68.9592H159.276V73.1069H159.503C159.976 71.7243 160.81 70.64 162.003 69.854C163.205 69.0681 164.607 68.6751 166.207 68.6751C167.751 68.6751 169.091 69.0302 170.227 69.7404C171.373 70.4412 172.259 71.4071 172.884 72.6381C173.518 73.8692 173.83 75.2754 173.821 76.8569V90.7773H165.98V78.5046C165.99 77.4251 165.715 76.5775 165.156 75.962C164.607 75.3465 163.84 75.0387 162.855 75.0387C162.211 75.0387 161.648 75.1808 161.165 75.4648C160.691 75.7395 160.327 76.1372 160.071 76.658C159.815 77.1694 159.683 77.7849 159.673 78.5046ZM185.589 91.0614C184.036 91.0614 182.607 90.6542 181.3 89.8398C180.002 89.0254 178.961 87.7897 178.175 86.1325C177.398 84.4753 177.01 82.3872 177.01 79.8683C177.01 77.2357 177.417 75.0955 178.232 73.4478C179.055 71.8001 180.116 70.5927 181.413 69.8256C182.72 69.0586 184.093 68.6751 185.533 68.6751C186.612 68.6751 187.559 68.8645 188.374 69.2433C189.188 69.6126 189.87 70.1097 190.419 70.7347C190.968 71.3503 191.385 72.0273 191.669 72.766H191.783V61.6864H199.624V90.7773H191.839V87.1978H191.669C191.366 87.9364 190.93 88.5993 190.362 89.1864C189.804 89.7641 189.122 90.2234 188.317 90.5643C187.521 90.8957 186.612 91.0614 185.589 91.0614ZM188.487 85.0387C189.207 85.0387 189.822 84.8304 190.334 84.4137C190.855 83.9876 191.252 83.391 191.527 82.6239C191.811 81.8474 191.953 80.9289 191.953 79.8683C191.953 78.7887 191.811 77.8654 191.527 77.0984C191.252 76.3219 190.855 75.73 190.334 75.3228C189.822 74.9061 189.207 74.6978 188.487 74.6978C187.768 74.6978 187.152 74.9061 186.641 75.3228C186.139 75.73 185.75 76.3219 185.476 77.0984C185.211 77.8654 185.078 78.7887 185.078 79.8683C185.078 80.9478 185.211 81.8758 185.476 82.6523C185.75 83.4194 186.139 84.0112 186.641 84.4279C187.152 84.8351 187.768 85.0387 188.487 85.0387ZM213.928 91.1751C211.598 91.1751 209.59 90.73 207.905 89.8398C206.229 88.9402 204.936 87.6523 204.027 85.9762C203.127 84.2906 202.678 82.2736 202.678 79.9251C202.678 77.6713 203.132 75.7016 204.041 74.016C204.95 72.3304 206.233 71.0188 207.891 70.0813C209.548 69.1438 211.503 68.6751 213.757 68.6751C215.405 68.6751 216.896 68.9308 218.232 69.4421C219.567 69.9535 220.708 70.6969 221.655 71.6722C222.602 72.6381 223.331 73.8124 223.842 75.195C224.354 76.5775 224.609 78.1353 224.609 79.8683V81.6864H205.121V77.3683H217.393C217.384 76.7433 217.223 76.194 216.911 75.7205C216.607 75.2376 216.196 74.8635 215.675 74.5984C215.163 74.3237 214.581 74.1864 213.928 74.1864C213.293 74.1864 212.711 74.3237 212.18 74.5984C211.65 74.8635 211.224 75.2328 210.902 75.7063C210.589 76.1798 210.424 76.7338 210.405 77.3683V82.0273C210.405 82.7281 210.552 83.3531 210.845 83.9023C211.139 84.4516 211.56 84.8825 212.109 85.195C212.659 85.5075 213.321 85.6637 214.098 85.6637C214.638 85.6637 215.13 85.5879 215.575 85.4364C216.03 85.2849 216.418 85.0671 216.74 84.783C217.062 84.4895 217.299 84.1391 217.45 83.7319H224.609C224.363 85.247 223.781 86.5633 222.862 87.6808C221.944 88.7887 220.727 89.6504 219.212 90.266C217.706 90.872 215.945 91.1751 213.928 91.1751ZM227.809 90.7773V68.9592H235.423V73.1069H235.65C236.048 71.5728 236.677 70.4506 237.539 69.7404C238.41 69.0302 239.428 68.6751 240.593 68.6751C240.934 68.6751 241.27 68.7035 241.602 68.7603C241.942 68.8076 242.269 68.8787 242.582 68.9734V75.6637C242.193 75.5311 241.715 75.4317 241.147 75.3654C240.579 75.2991 240.091 75.266 239.684 75.266C238.917 75.266 238.226 75.4412 237.61 75.7915C237.004 76.1325 236.526 76.6154 236.175 77.2404C235.825 77.8559 235.65 78.5804 235.65 79.4137V90.7773H227.809Z" fill="url(#paint1_linear_36_65)"/>
<defs>
<linearGradient id="paint0_linear_36_65" x1="92.6892" y1="23.9024" x2="138.878" y2="24.4086" gradientUnits="userSpaceOnUse">
<stop offset="0.0256954" stop-color="#4EA8DE"/>
<stop offset="1" stop-color="#5E60CE"/>
</linearGradient>
<linearGradient id="paint1_linear_36_65" x1="12.5512" y1="75.6798" x2="218.882" y2="87.8271" gradientUnits="userSpaceOnUse">
<stop stop-color="#4EA8DE"/>
<stop offset="1" stop-color="#8284FA"/>
</linearGradient>
</defs>
</svg>
